<svg width="1920" height="1080" viewBox="0 0 1920 1080" fill="none" xmlns="http://www.w3.org/2000/svg">
  <rect width="1920" height="1080" fill="#0F9D58"/>
  <g opacity="0.9">
    <path d="M960 540C960 838.369 748.369 1050 450 1050C201.715 1050 0 838.369 0 540C0 241.631 201.715 30 450 30C748.369 30 960 241.631 960 540Z" fill="url(#paint0_radial_1_2)" fill-opacity="0.3"/>
    <path d="M1920 540C1920 838.369 1718.28 1050 1470 1050C1171.63 1050 960 838.369 960 540C960 241.631 1171.63 30 1470 30C1718.28 30 1920 241.631 1920 540Z" fill="url(#paint1_radial_1_2)" fill-opacity="0.3"/>
  </g>
  <path d="M960 540C960 748.37 1168.63 540 1377 540C1585.37 540 960 748.37 960 540Z" fill="url(#paint2_radial_1_2)" fill-opacity="0.4"/>
  <path d="M960 540C960 331.63 1168.63 540 1377 540C1585.37 540 960 331.63 960 540Z" fill="url(#paint3_radial_1_2)" fill-opacity="0.3"/>
  
  <!-- Android Robot Head -->
  <g transform="translate(760, 390)">
    <circle cx="200" cy="100" r="60" fill="#A4C639"/>
    <circle cx="180" cy="90" r="8" fill="#333"/>
    <circle cx="220" cy="90" r="8" fill="#333"/>
    <path d="M180 130 Q200 150 220 130" stroke="#333" stroke-width="4" fill="none" stroke-linecap="round"/>
    
    <!-- Antenna -->
    <path d="M190 40 L180 20" stroke="#A4C639" stroke-width="6" stroke-linecap="round"/>
    <path d="M210 40 L220 20" stroke="#A4C639" stroke-width="6" stroke-linecap="round"/>
    <circle cx="180" cy="20" r="5" fill="#A4C639"/>
    <circle cx="220" cy="20" r="5" fill="#A4C639"/>
  </g>
  
  <defs>
    <radialGradient id="paint0_radial_1_2" cx="0" cy="0" r="1" gradientUnits="userSpaceOnUse" gradientTransform="translate(450 540) rotate(90) scale(510 510)">
      <stop stop-color="#0F9D58"/>
      <stop offset="1" stop-color="#1E88E5"/>
    </radialGradient>
    <radialGradient id="paint1_radial_1_2" cx="0" cy="0" r="1" gradientUnits="userSpaceOnUse" gradientTransform="translate(1470 540) rotate(90) scale(510 960)">
      <stop stop-color="#0F9D58"/>
      <stop offset="1" stop-color="#1E88E5"/>
    </radialGradient>
    <radialGradient id="paint2_radial_1_2" cx="0" cy="0" r="1" gradientUnits="userSpaceOnUse" gradientTransform="translate(1168.5 540) scale(408.5 208.5)">
      <stop stop-color="white" stop-opacity="0.3"/>
      <stop offset="1" stop-color="white" stop-opacity="0"/>
    </radialGradient>
    <radialGradient id="paint3_radial_1_2" cx="0" cy="0" r="1" gradientUnits="userSpaceOnUse" gradientTransform="translate(1168.5 540) scale(408.5 208.5)">
      <stop stop-color="white" stop-opacity="0.1"/>
      <stop offset="1" stop-color="white" stop-opacity="0"/>
    </radialGradient>
  </defs>
</svg>
