<?xml version="1.0" encoding="UTF-8"?>
<!DOCTYPE svg PUBLIC "-//W3C//DTD SVG 1.1//EN" "http://www.w3.org/Graphics/SVG/1.1/DTD/svg11.dtd">
<svg xmlns="http://www.w3.org/2000/svg" version="1.1" width="182px" height="172px" style="shape-rendering:geometricPrecision; text-rendering:geometricPrecision; image-rendering:optimizeQuality; fill-rule:evenodd; clip-rule:evenodd" xmlns:xlink="http://www.w3.org/1999/xlink">
<g><path style="opacity:1" fill="#edefe9" d="M -0.5,-0.5 C 31.1667,-0.5 62.8333,-0.5 94.5,-0.5C 94.8278,10.3464 94.4944,21.0131 93.5,31.5C 91.5,31.5 89.5,31.5 87.5,31.5C 87.719,32.675 87.3857,33.675 86.5,34.5C 82.1433,36.1309 81.81,38.7975 85.5,42.5C 82.9536,43.2762 80.6202,42.6095 78.5,40.5C 74.5352,41.7861 72.5352,44.4528 72.5,48.5C 68.1762,49.8037 67.5096,52.137 70.5,55.5C 69.3951,56.6005 68.0618,57.2671 66.5,57.5C 65.1667,56.8333 64.1667,55.8333 63.5,54.5C 63.44,53.9569 63.1067,53.6236 62.5,53.5C 61.2054,54.0983 59.8721,54.5983 58.5,55C 54.6265,57.3063 51.1265,60.1396 48,63.5C 47.2195,64.9437 47.3861,66.277 48.5,67.5C 49.4287,66.3112 49.762,64.9778 49.5,63.5C 52.3087,63.5878 53.642,65.0878 53.5,68C 52.9265,69.6067 52.2598,71.1067 51.5,72.5C 50.5489,73.9187 50.2155,75.5853 50.5,77.5C 52.2161,77.6287 53.8828,77.962 55.5,78.5C 55.5,83.1667 55.5,87.8333 55.5,92.5C 53.1523,92.5923 51.4856,93.5923 50.5,95.5C 33.7086,95.4643 16.7086,95.4643 -0.5,95.5C -0.5,63.5 -0.5,31.5 -0.5,-0.5 Z"/></g>
<g><path style="opacity:1" fill="#edefea" d="M 94.5,-0.5 C 123.5,-0.5 152.5,-0.5 181.5,-0.5C 181.5,31.5 181.5,63.5 181.5,95.5C 164.291,95.4643 147.291,95.4643 130.5,95.5C 130.5,94.5 130.5,93.5 130.5,92.5C 128.833,92.5 127.167,92.5 125.5,92.5C 125.5,90.8333 125.5,89.1667 125.5,87.5C 127.167,87.5 128.833,87.5 130.5,87.5C 130.5,85.8333 130.5,84.1667 130.5,82.5C 128.833,82.5 127.167,82.5 125.5,82.5C 125.5,81.5 125.5,80.5 125.5,79.5C 126.779,78.032 128.446,77.3653 130.5,77.5C 130.151,72.8235 127.818,71.4901 123.5,73.5C 123.567,72.0413 123.234,70.7079 122.5,69.5C 128.218,65.0252 127.218,63.0252 119.5,63.5C 121.978,60.6709 122.978,57.3375 122.5,53.5C 119.5,53.5 116.5,53.5 113.5,53.5C 113.5,52.5 113.5,51.5 113.5,50.5C 115.681,50.7163 117.347,49.883 118.5,48C 114.101,48.0908 109.768,47.9241 105.5,47.5C 103.358,41.19 100.191,40.8567 96,46.5C 95.8066,41.3394 94.9733,36.3394 93.5,31.5C 94.4944,21.0131 94.8278,10.3464 94.5,-0.5 Z"/></g>
<g><path style="opacity:1" fill="#deeddd" d="M 93.5,31.5 C 94.9733,36.3394 95.8066,41.3394 96,46.5C 100.191,40.8567 103.358,41.19 105.5,47.5C 109.768,47.9241 114.101,48.0908 118.5,48C 117.347,49.883 115.681,50.7163 113.5,50.5C 113.5,51.5 113.5,52.5 113.5,53.5C 116.5,53.5 119.5,53.5 122.5,53.5C 122.978,57.3375 121.978,60.6709 119.5,63.5C 119.167,63.5 118.833,63.5 118.5,63.5C 117.884,62.7978 117.884,61.7978 118.5,60.5C 121.106,59.1501 121.106,57.6501 118.5,56C 116.505,55.3872 114.838,55.8872 113.5,57.5C 111.973,57.573 110.973,56.9063 110.5,55.5C 111.341,53.6208 111.675,51.6208 111.5,49.5C 108.465,49.3469 106.465,50.6803 105.5,53.5C 103.973,53.573 102.973,52.9063 102.5,51.5C 102.5,49.5 102.5,47.5 102.5,45.5C 99.4535,45.1826 97.7868,46.5159 97.5,49.5C 95.8333,50.8333 94.1667,50.8333 92.5,49.5C 92.5,47.8333 92.5,46.1667 92.5,44.5C 90.8333,44.5 89.1667,44.5 87.5,44.5C 87.5,46.1667 87.5,47.8333 87.5,49.5C 86.1667,49.8333 84.8333,50.1667 83.5,50.5C 82.962,48.8828 82.6287,47.2161 82.5,45.5C 78.4242,45.2939 77.0908,46.9606 78.5,50.5C 77.3285,51.3446 75.9952,52.0113 74.5,52.5C 73.3263,51.4863 72.6596,50.153 72.5,48.5C 72.5352,44.4528 74.5352,41.7861 78.5,40.5C 80.6202,42.6095 82.9536,43.2762 85.5,42.5C 81.81,38.7975 82.1433,36.1309 86.5,34.5C 87.3857,33.675 87.719,32.675 87.5,31.5C 89.5,31.5 91.5,31.5 93.5,31.5 Z"/></g>
<g><path style="opacity:1" fill="#278549" d="M 92.5,49.5 C 90.8333,49.5 89.1667,49.5 87.5,49.5C 87.5,47.8333 87.5,46.1667 87.5,44.5C 89.1667,44.5 90.8333,44.5 92.5,44.5C 92.5,46.1667 92.5,47.8333 92.5,49.5 Z"/></g>
<g><path style="opacity:1" fill="#278451" d="M 83.5,50.5 C 81.8333,50.5 80.1667,50.5 78.5,50.5C 77.0908,46.9606 78.4242,45.2939 82.5,45.5C 82.6287,47.2161 82.962,48.8828 83.5,50.5 Z"/></g>
<g><path style="opacity:1" fill="#38854f" d="M 102.5,51.5 C 100.219,51.9227 98.5521,51.256 97.5,49.5C 97.7868,46.5159 99.4535,45.1826 102.5,45.5C 102.5,47.5 102.5,49.5 102.5,51.5 Z"/></g>
<g><path style="opacity:1" fill="#23864a" d="M 72.5,48.5 C 72.6596,50.153 73.3263,51.4863 74.5,52.5C 73.205,53.4884 71.8717,54.4884 70.5,55.5C 67.5096,52.137 68.1762,49.8037 72.5,48.5 Z"/></g>
<g><path style="opacity:1" fill="#ddb630" d="M 92.5,49.5 C 94.1667,50.8333 95.8333,50.8333 97.5,49.5C 98.5521,51.256 100.219,51.9227 102.5,51.5C 102.973,52.9063 103.973,53.573 105.5,53.5C 107.028,54.3092 108.694,54.9759 110.5,55.5C 110.973,56.9063 111.973,57.573 113.5,57.5C 114.207,59.1344 115.373,60.4677 117,61.5C 117.383,60.944 117.883,60.6107 118.5,60.5C 117.884,61.7978 117.884,62.7978 118.5,63.5C 118.5,64.8333 118.5,66.1667 118.5,67.5C 116.901,66.438 115.234,66.438 113.5,67.5C 113.33,66.1779 113.663,65.0113 114.5,64C 112.893,62.951 112.227,61.451 112.5,59.5C 108.143,58.1839 103.643,56.1839 99,53.5C 97.3468,53.8198 96.3468,54.8198 96,56.5C 95.51,55.2068 95.3433,53.8734 95.5,52.5C 94.5,52.5 93.5,52.5 92.5,52.5C 92.5,53.8333 92.5,55.1667 92.5,56.5C 90.5,56.5 88.5,56.5 86.5,56.5C 86.5,55.1667 86.5,53.8333 86.5,52.5C 88.1561,50.9397 90.1561,49.9397 92.5,49.5 Z"/></g>
<g><path style="opacity:1" fill="#2e8d3b" d="M 110.5,55.5 C 108.694,54.9759 107.028,54.3092 105.5,53.5C 106.465,50.6803 108.465,49.3469 111.5,49.5C 111.675,51.6208 111.341,53.6208 110.5,55.5 Z"/></g>
<g><path style="opacity:1" fill="#cdc637" d="M 87.5,49.5 C 89.1667,49.5 90.8333,49.5 92.5,49.5C 90.1561,49.9397 88.1561,50.9397 86.5,52.5C 85.8333,52.5 85.1667,52.5 84.5,52.5C 84.5654,52.0618 84.3988,51.7284 84,51.5C 81.5529,52.4056 79.0529,53.2389 76.5,54C 75.944,54.3826 75.6107,54.8826 75.5,55.5C 74.1154,56.5736 72.9487,57.9069 72,59.5C 71.586,59.0426 71.086,58.7093 70.5,58.5C 68.3711,60.6562 66.0378,62.3229 63.5,63.5C 63.5,62.8333 63.5,62.1667 63.5,61.5C 65.5323,60.9522 66.5323,59.6188 66.5,57.5C 68.0618,57.2671 69.3951,56.6005 70.5,55.5C 71.8717,54.4884 73.205,53.4884 74.5,52.5C 75.9952,52.0113 77.3285,51.3446 78.5,50.5C 80.1667,50.5 81.8333,50.5 83.5,50.5C 84.8333,50.1667 86.1667,49.8333 87.5,49.5 Z"/></g>
<g><path style="opacity:1" fill="#e1aa20" d="M 84.5,52.5 C 81.9381,53.6544 79.4381,54.9877 77,56.5C 76.6174,55.944 76.1174,55.6107 75.5,55.5C 75.6107,54.8826 75.944,54.3826 76.5,54C 79.0529,53.2389 81.5529,52.4056 84,51.5C 84.3988,51.7284 84.5654,52.0618 84.5,52.5 Z"/></g>
<g><path style="opacity:1" fill="#34894b" d="M 63.5,54.5 C 64.1667,55.8333 65.1667,56.8333 66.5,57.5C 66.5323,59.6188 65.5323,60.9522 63.5,61.5C 59.5,59.1667 59.5,56.8333 63.5,54.5 Z"/></g>
<g><path style="opacity:1" fill="#a6882a" d="M 84.5,52.5 C 85.1667,52.5 85.8333,52.5 86.5,52.5C 86.5,53.8333 86.5,55.1667 86.5,56.5C 88.5,56.5 90.5,56.5 92.5,56.5C 92.5,55.1667 92.5,53.8333 92.5,52.5C 93.5,52.5 94.5,52.5 95.5,52.5C 95.3433,53.8734 95.51,55.2068 96,56.5C 96.3468,54.8198 97.3468,53.8198 99,53.5C 103.643,56.1839 108.143,58.1839 112.5,59.5C 112.227,61.451 112.893,62.951 114.5,64C 113.663,65.0113 113.33,66.1779 113.5,67.5C 111.52,66.5161 109.853,65.1827 108.5,63.5C 99.7244,57.3839 90.0577,55.8839 79.5,59C 77.599,60.7482 75.599,62.2482 73.5,63.5C 71.901,63.2322 70.5676,63.5655 69.5,64.5C 68.2767,67.4467 66.2767,68.4467 63.5,67.5C 63.5,66.1667 63.5,64.8333 63.5,63.5C 66.0378,62.3229 68.3711,60.6562 70.5,58.5C 71.086,58.7093 71.586,59.0426 72,59.5C 72.9487,57.9069 74.1154,56.5736 75.5,55.5C 76.1174,55.6107 76.6174,55.944 77,56.5C 79.4381,54.9877 81.9381,53.6544 84.5,52.5 Z"/></g>
<g><path style="opacity:1" fill="#2f9147" d="M 118.5,60.5 C 117.883,60.6107 117.383,60.944 117,61.5C 115.373,60.4677 114.207,59.1344 113.5,57.5C 114.838,55.8872 116.505,55.3872 118.5,56C 121.106,57.6501 121.106,59.1501 118.5,60.5 Z"/></g>
<g><path style="opacity:1" fill="#e4f0dd" d="M 63.5,54.5 C 59.5,56.8333 59.5,59.1667 63.5,61.5C 63.5,62.1667 63.5,62.8333 63.5,63.5C 62.391,63.5569 61.391,63.8902 60.5,64.5C 58.6208,63.6586 56.6208,63.3253 54.5,63.5C 54.5,65.1667 54.5,66.8333 54.5,68.5C 55.9587,68.4326 57.2921,68.7659 58.5,69.5C 58.0113,70.9952 57.3446,72.3285 56.5,73.5C 54.8828,72.962 53.2161,72.6287 51.5,72.5C 52.2598,71.1067 52.9265,69.6067 53.5,68C 53.642,65.0878 52.3087,63.5878 49.5,63.5C 49.762,64.9778 49.4287,66.3112 48.5,67.5C 47.3861,66.277 47.2195,64.9437 48,63.5C 51.1265,60.1396 54.6265,57.3063 58.5,55C 59.8721,54.5983 61.2054,54.0983 62.5,53.5C 63.1067,53.6236 63.44,53.9569 63.5,54.5 Z"/></g>
<g><path style="opacity:1" fill="#37984d" d="M 119.5,63.5 C 127.218,63.0252 128.218,65.0252 122.5,69.5C 122.167,69.5 121.833,69.5 121.5,69.5C 120.37,67.6854 119.704,65.6854 119.5,63.5 Z"/></g>
<g><path style="opacity:1" fill="#299444" d="M 60.5,64.5 C 60.6085,66.5138 59.9418,68.1805 58.5,69.5C 57.2921,68.7659 55.9587,68.4326 54.5,68.5C 54.5,66.8333 54.5,65.1667 54.5,63.5C 56.6208,63.3253 58.6208,63.6586 60.5,64.5 Z"/></g>
<g><path style="opacity:1" fill="#eaeadf" d="M 108.5,63.5 C 106.245,65.5309 104.912,68.1975 104.5,71.5C 100.276,78.2698 96.2762,85.2698 92.5,92.5C 91.0937,92.9731 90.427,93.9731 90.5,95.5C 89.209,95.7373 88.209,95.404 87.5,94.5C 88.0431,94.44 88.3764,94.1067 88.5,93.5C 87.0449,90.2446 85.3782,87.2446 83.5,84.5C 81.6979,81.7012 80.3646,78.7012 79.5,75.5C 78.1535,73.4632 76.8202,71.4632 75.5,69.5C 74.2702,67.7028 73.6036,65.7028 73.5,63.5C 75.599,62.2482 77.599,60.7482 79.5,59C 90.0577,55.8839 99.7244,57.3839 108.5,63.5 Z"/></g>
<g><path style="opacity:1" fill="#cd423c" d="M 93.5,70.5 C 91.5853,70.2155 89.9187,70.5489 88.5,71.5C 85.5613,68.9933 85.8946,66.9933 89.5,65.5C 90.4287,64.3112 90.762,62.9778 90.5,61.5C 94.2403,60.7415 95.907,62.2415 95.5,66C 95.2414,67.7866 94.5747,69.2866 93.5,70.5 Z"/></g>
<g><path style="opacity:1" fill="#c7d441" d="M 118.5,63.5 C 118.833,63.5 119.167,63.5 119.5,63.5C 119.704,65.6854 120.37,67.6854 121.5,69.5C 120.5,68.8333 119.5,68.1667 118.5,67.5C 118.5,66.1667 118.5,64.8333 118.5,63.5 Z"/></g>
<g><path style="opacity:1" fill="#d28a29" d="M 69.5,64.5 C 68.2781,68.6119 66.2781,72.2786 63.5,75.5C 63.6695,73.088 63.0028,70.9214 61.5,69C 61.8361,67.9701 62.5028,67.4701 63.5,67.5C 66.2767,68.4467 68.2767,67.4467 69.5,64.5 Z"/></g>
<g><path style="opacity:1" fill="#9b7717" d="M 118.5,67.5 C 118.34,69.1992 118.506,70.8659 119,72.5C 119.889,71.1118 120.389,71.2785 120.5,73C 120.257,73.9021 119.923,74.7354 119.5,75.5C 118.5,75.5 117.5,75.5 116.5,75.5C 116.428,72.4475 115.428,69.7808 113.5,67.5C 115.234,66.438 116.901,66.438 118.5,67.5 Z"/></g>
<g><path style="opacity:1" fill="#505147" d="M 93.5,70.5 C 93.5858,71.4959 93.2524,72.3292 92.5,73C 96.2594,74.0006 97.9261,76.5006 97.5,80.5C 95.5,80.5 93.5,80.5 91.5,80.5C 90.8333,91.1667 90.1667,91.1667 89.5,80.5C 87.5,80.5 85.5,80.5 83.5,80.5C 83.3398,78.8008 83.5065,77.1341 84,75.5C 85.8587,74.4209 87.3587,73.0876 88.5,71.5C 89.9187,70.5489 91.5853,70.2155 93.5,70.5 Z"/></g>
<g><path style="opacity:1" fill="#2e8d48" d="M 51.5,72.5 C 53.2161,72.6287 54.8828,72.962 56.5,73.5C 56.3713,75.2161 56.038,76.8828 55.5,78.5C 53.8828,77.962 52.2161,77.6287 50.5,77.5C 50.2155,75.5853 50.5489,73.9187 51.5,72.5 Z"/></g>
<g><path style="opacity:1" fill="#ceb02e" d="M 63.5,63.5 C 63.5,64.8333 63.5,66.1667 63.5,67.5C 62.5028,67.4701 61.8361,67.9701 61.5,69C 63.0028,70.9214 63.6695,73.088 63.5,75.5C 63.5,76.5 63.5,77.5 63.5,78.5C 61.9755,77.8262 60.6422,76.8262 59.5,75.5C 58.5713,76.6888 58.238,78.0222 58.5,79.5C 56.6122,81.9878 55.9455,84.9878 56.5,88.5C 57.8333,88.5 59.1667,88.5 60.5,88.5C 60.0338,90.2012 60.0338,91.7012 60.5,93C 59.324,94.9142 58.324,94.7476 57.5,92.5C 56.7025,92.9569 56.3691,93.6236 56.5,94.5C 55.6618,94.1583 55.3284,93.4916 55.5,92.5C 55.5,87.8333 55.5,83.1667 55.5,78.5C 56.038,76.8828 56.3713,75.2161 56.5,73.5C 57.3446,72.3285 58.0113,70.9952 58.5,69.5C 59.9418,68.1805 60.6085,66.5138 60.5,64.5C 61.391,63.8902 62.391,63.5569 63.5,63.5 Z"/></g>
<g><path style="opacity:1" fill="#3b8553" d="M 125.5,79.5 C 124.833,77.5 124.167,75.5 123.5,73.5C 127.818,71.4901 130.151,72.8235 130.5,77.5C 128.446,77.3653 126.779,78.032 125.5,79.5 Z"/></g>
<g><path style="opacity:1" fill="#e1dfdf" d="M 91.5,74.5 C 94.179,74.5246 95.5123,75.858 95.5,78.5C 94.1667,78.5 92.8333,78.5 91.5,78.5C 91.5,77.1667 91.5,75.8333 91.5,74.5 Z"/></g>
<g><path style="opacity:1" fill="#d32f21" d="M 73.5,63.5 C 73.6036,65.7028 74.2702,67.7028 75.5,69.5C 75.7135,71.1439 75.3802,72.6439 74.5,74C 72.7749,73.5913 71.1082,73.7579 69.5,74.5C 68.4776,77.2019 67.4776,79.8686 66.5,82.5C 66.1961,83.1499 65.8627,83.8165 65.5,84.5C 70.233,84.5659 72.5663,86.8992 72.5,91.5C 71.8213,93.8139 70.488,94.1472 68.5,92.5C 67.7025,92.9569 67.3691,93.6236 67.5,94.5C 66.1667,94.5 64.8333,94.5 63.5,94.5C 63.5,92.8333 63.5,91.1667 63.5,89.5C 63.5,85.8333 63.5,82.1667 63.5,78.5C 63.5,77.5 63.5,76.5 63.5,75.5C 66.2781,72.2786 68.2781,68.6119 69.5,64.5C 70.5676,63.5655 71.901,63.2322 73.5,63.5 Z"/></g>
<g><path style="opacity:1" fill="#ecdbda" d="M 86.5,74.5 C 87.5,74.5 88.5,74.5 89.5,74.5C 89.5,75.8333 89.5,77.1667 89.5,78.5C 88.1667,78.5 86.8333,78.5 85.5,78.5C 85.4326,77.0413 85.7659,75.7079 86.5,74.5 Z"/></g>
<g><path style="opacity:1" fill="#c34d44" d="M 75.5,69.5 C 76.8202,71.4632 78.1535,73.4632 79.5,75.5C 78.5,75.5 77.5,75.5 76.5,75.5C 76.7373,76.791 76.404,77.791 75.5,78.5C 75.9111,75.7237 75.0777,75.057 73,76.5C 72.0546,76.0946 71.3879,75.428 71,74.5C 70.4719,77.2187 70.9719,79.7187 72.5,82C 72.1667,82.8333 71.8333,83.6667 71.5,84.5C 70.5713,83.3112 70.238,81.9778 70.5,80.5C 68.8007,80.5271 67.4674,81.1938 66.5,82.5C 67.4776,79.8686 68.4776,77.2019 69.5,74.5C 71.1082,73.7579 72.7749,73.5913 74.5,74C 75.3802,72.6439 75.7135,71.1439 75.5,69.5 Z"/></g>
<g><path style="opacity:1" fill="#d32f21" d="M 79.5,75.5 C 80.3646,78.7012 81.6979,81.7012 83.5,84.5C 84.3845,88.4896 83.0511,91.3229 79.5,93C 77.2568,93.7966 75.9234,93.6299 75.5,92.5C 77.588,90.6644 78.9213,88.3311 79.5,85.5C 79.6602,83.8008 79.4935,82.1341 79,80.5C 77.8904,82.0368 76.3904,82.7035 74.5,82.5C 74.4326,81.0413 74.7659,79.7079 75.5,78.5C 76.404,77.791 76.7373,76.791 76.5,75.5C 77.5,75.5 78.5,75.5 79.5,75.5 Z"/></g>
<g><path style="opacity:1" fill="#1d1b0e" d="M 125.5,82.5 C 127.167,82.5 128.833,82.5 130.5,82.5C 130.5,84.1667 130.5,85.8333 130.5,87.5C 128.833,87.5 127.167,87.5 125.5,87.5C 125.5,85.8333 125.5,84.1667 125.5,82.5 Z"/></g>
<g><path style="opacity:1" fill="#b3610d" d="M 63.5,78.5 C 63.5,82.1667 63.5,85.8333 63.5,89.5C 62.5206,86.3752 62.1872,83.0419 62.5,79.5C 61.1667,79.5 59.8333,79.5 58.5,79.5C 58.238,78.0222 58.5713,76.6888 59.5,75.5C 60.6422,76.8262 61.9755,77.8262 63.5,78.5 Z"/></g>
<g><path style="opacity:1" fill="#efbead" d="M 75.5,78.5 C 74.7659,79.7079 74.4326,81.0413 74.5,82.5C 73.9473,88.6747 75.6139,89.6747 79.5,85.5C 78.9213,88.3311 77.588,90.6644 75.5,92.5C 75.631,91.7611 75.4643,91.0944 75,90.5C 74.3292,91.2524 73.4959,91.5858 72.5,91.5C 72.5663,86.8992 70.233,84.5659 65.5,84.5C 65.8627,83.8165 66.1961,83.1499 66.5,82.5C 67.4674,81.1938 68.8007,80.5271 70.5,80.5C 70.238,81.9778 70.5713,83.3112 71.5,84.5C 71.8333,83.6667 72.1667,82.8333 72.5,82C 70.9719,79.7187 70.4719,77.2187 71,74.5C 71.3879,75.428 72.0546,76.0946 73,76.5C 75.0777,75.057 75.9111,75.7237 75.5,78.5 Z"/></g>
<g><path style="opacity:1" fill="#1e1512" d="M 49.5,82.5 C 51.1667,82.5 52.8333,82.5 54.5,82.5C 54.5,84.1667 54.5,85.8333 54.5,87.5C 52.8333,87.5 51.1667,87.5 49.5,87.5C 49.5,85.8333 49.5,84.1667 49.5,82.5 Z"/></g>
<g><path style="opacity:1" fill="#21903e" d="M 108.5,63.5 C 109.853,65.1827 111.52,66.5161 113.5,67.5C 115.428,69.7808 116.428,72.4475 116.5,75.5C 117.43,79.3998 117.763,83.3998 117.5,87.5C 115.648,86.9111 113.815,86.2444 112,85.5C 111.697,81.106 111.03,76.7727 110,72.5C 108.041,71.9561 106.208,71.6227 104.5,71.5C 104.912,68.1975 106.245,65.5309 108.5,63.5 Z"/></g>
<g><path style="opacity:1" fill="#96aa24" d="M 116.5,75.5 C 117.5,75.5 118.5,75.5 119.5,75.5C 118.89,76.391 118.557,77.391 118.5,78.5C 118.815,82.3714 118.482,86.0381 117.5,89.5C 117.5,88.8333 117.5,88.1667 117.5,87.5C 117.763,83.3998 117.43,79.3998 116.5,75.5 Z"/></g>
<g><path style="opacity:1" fill="#c44646" d="M 79.5,85.5 C 75.6139,89.6747 73.9473,88.6747 74.5,82.5C 76.3904,82.7035 77.8904,82.0368 79,80.5C 79.4935,82.1341 79.6602,83.8008 79.5,85.5 Z"/></g>
<g><path style="opacity:1" fill="#f3be18" d="M 58.5,79.5 C 59.8333,79.5 61.1667,79.5 62.5,79.5C 62.1872,83.0419 62.5206,86.3752 63.5,89.5C 63.5,91.1667 63.5,92.8333 63.5,94.5C 63.2291,96.3797 63.8958,97.713 65.5,98.5C 65.5,100.167 65.5,101.833 65.5,103.5C 64.1667,103.5 63.5,104.167 63.5,105.5C 62.8333,105.5 62.1667,105.5 61.5,105.5C 61.1667,105.5 60.8333,105.5 60.5,105.5C 60.4456,103.368 59.4456,102.035 57.5,101.5C 58.4483,99.3279 58.115,97.3279 56.5,95.5C 56.5,95.1667 56.5,94.8333 56.5,94.5C 56.3691,93.6236 56.7025,92.9569 57.5,92.5C 58.324,94.7476 59.324,94.9142 60.5,93C 60.0338,91.7012 60.0338,90.2012 60.5,88.5C 59.1667,88.5 57.8333,88.5 56.5,88.5C 55.9455,84.9878 56.6122,81.9878 58.5,79.5 Z"/></g>
<g><path style="opacity:1" fill="#ba3327" d="M 83.5,84.5 C 85.3782,87.2446 87.0449,90.2446 88.5,93.5C 88.3764,94.1067 88.0431,94.44 87.5,94.5C 80.8333,94.5 74.1667,94.5 67.5,94.5C 67.3691,93.6236 67.7025,92.9569 68.5,92.5C 70.488,94.1472 71.8213,93.8139 72.5,91.5C 73.4959,91.5858 74.3292,91.2524 75,90.5C 75.4643,91.0944 75.631,91.7611 75.5,92.5C 75.9234,93.6299 77.2568,93.7966 79.5,93C 83.0511,91.3229 84.3845,88.4896 83.5,84.5 Z"/></g>
<g><path style="opacity:1" fill="#eec118" d="M 118.5,78.5 C 120.5,78.8333 122.5,79.1667 124.5,79.5C 125.006,84.6997 124.673,87.6997 123.5,88.5C 122.5,88.5 121.5,88.5 120.5,88.5C 120.986,91.7109 121.986,94.7109 123.5,97.5C 122.833,98.8333 122.167,100.167 121.5,101.5C 120.4,102.605 119.733,103.938 119.5,105.5C 118.833,106.167 118.167,106.833 117.5,107.5C 116.143,105.164 114.81,102.83 113.5,100.5C 114.167,99.1667 114.833,97.8333 115.5,96.5C 115.5,96.1667 115.5,95.8333 115.5,95.5C 116.167,95.5 116.5,95.1667 116.5,94.5C 116.629,92.7839 116.962,91.1172 117.5,89.5C 118.482,86.0381 118.815,82.3714 118.5,78.5 Z"/></g>
<g><path style="opacity:1" fill="#d0ac2b" d="M 118.5,67.5 C 119.5,68.1667 120.5,68.8333 121.5,69.5C 121.833,69.5 122.167,69.5 122.5,69.5C 123.234,70.7079 123.567,72.0413 123.5,73.5C 124.167,75.5 124.833,77.5 125.5,79.5C 125.5,80.5 125.5,81.5 125.5,82.5C 125.5,84.1667 125.5,85.8333 125.5,87.5C 125.5,89.1667 125.5,90.8333 125.5,92.5C 124.549,93.9187 124.216,95.5853 124.5,97.5C 124.167,97.5 123.833,97.5 123.5,97.5C 121.986,94.7109 120.986,91.7109 120.5,88.5C 121.5,88.5 122.5,88.5 123.5,88.5C 124.673,87.6997 125.006,84.6997 124.5,79.5C 122.5,79.1667 120.5,78.8333 118.5,78.5C 118.557,77.391 118.89,76.391 119.5,75.5C 119.923,74.7354 120.257,73.9021 120.5,73C 120.389,71.2785 119.889,71.1118 119,72.5C 118.506,70.8659 118.34,69.1992 118.5,67.5 Z"/></g>
<g><path style="opacity:1" fill="#166f34" d="M 104.5,71.5 C 106.208,71.6227 108.041,71.9561 110,72.5C 111.03,76.7727 111.697,81.106 112,85.5C 113.815,86.2444 115.648,86.9111 117.5,87.5C 117.5,88.1667 117.5,88.8333 117.5,89.5C 116.962,91.1172 116.629,92.7839 116.5,94.5C 108.097,95.1335 100.097,94.4668 92.5,92.5C 96.2762,85.2698 100.276,78.2698 104.5,71.5 Z"/></g>
<g><path style="opacity:1" fill="#92e4ab" d="M 92.5,92.5 C 100.097,94.4668 108.097,95.1335 116.5,94.5C 116.5,95.1667 116.167,95.5 115.5,95.5C 107.167,95.5 98.8333,95.5 90.5,95.5C 90.427,93.9731 91.0937,92.9731 92.5,92.5 Z"/></g>
<g><path style="opacity:1" fill="#edefea" d="M 50.5,95.5 C 50.9704,96.6935 51.9704,97.3601 53.5,97.5C 55.0296,97.3601 56.0296,96.6935 56.5,95.5C 58.115,97.3279 58.4483,99.3279 57.5,101.5C 53.8327,102.86 53.4994,104.86 56.5,107.5C 57.8599,106.82 59.1932,106.153 60.5,105.5C 60.8333,105.5 61.1667,105.5 61.5,105.5C 62.6005,106.605 63.2671,107.938 63.5,109.5C 60.7564,110.072 59.9231,111.738 61,114.5C 63.5283,115.934 65.3617,115.267 66.5,112.5C 68.5,112.5 69.5,113.5 69.5,115.5C 67.921,121.771 69.421,122.771 74,118.5C 74.6917,117.563 74.525,116.897 73.5,116.5C 74.6316,115.646 75.965,115.646 77.5,116.5C 78.1098,117.391 78.4431,118.391 78.5,119.5C 76.6511,122.383 77.3178,124.383 80.5,125.5C 81.9516,126.302 83.6183,126.802 85.5,127C 84.3815,141.437 84.3815,155.937 85.5,170.5C 56.8333,170.5 28.1667,170.5 -0.5,170.5C -0.5,145.5 -0.5,120.5 -0.5,95.5C 16.7086,95.4643 33.7086,95.4643 50.5,95.5 Z"/></g>
<g><path style="opacity:1" fill="#1d1718" d="M 55.5,92.5 C 55.3284,93.4916 55.6618,94.1583 56.5,94.5C 56.5,94.8333 56.5,95.1667 56.5,95.5C 56.0296,96.6935 55.0296,97.3601 53.5,97.5C 51.9704,97.3601 50.9704,96.6935 50.5,95.5C 51.4856,93.5923 53.1523,92.5923 55.5,92.5 Z"/></g>
<g><path style="opacity:1" fill="#cca99b" d="M 63.5,94.5 C 64.8333,94.5 66.1667,94.5 67.5,94.5C 74.1667,94.5 80.8333,94.5 87.5,94.5C 88.209,95.404 89.209,95.7373 90.5,95.5C 98.8333,95.5 107.167,95.5 115.5,95.5C 115.5,95.8333 115.5,96.1667 115.5,96.5C 98.4665,95.8479 81.7998,96.5146 65.5,98.5C 63.8958,97.713 63.2291,96.3797 63.5,94.5 Z"/></g>
<g><path style="opacity:1" fill="#edefea" d="M 181.5,95.5 C 181.5,120.5 181.5,145.5 181.5,170.5C 152.833,170.5 124.167,170.5 95.5,170.5C 95.5,156.167 95.5,141.833 95.5,127.5C 98.9927,126.236 102.493,126.236 106,127.5C 106.833,127.167 107.667,126.833 108.5,126.5C 107.167,125.833 105.833,125.167 104.5,124.5C 107.507,122.9 109.841,123.567 111.5,126.5C 114.784,127.657 118.118,127.824 121.5,127C 120.333,125.833 119.167,124.667 118,123.5C 117.667,123.833 117.333,124.167 117,124.5C 115.352,123.283 113.519,122.45 111.5,122C 113.495,119.843 114.828,117.343 115.5,114.5C 117.802,115.86 119.468,115.193 120.5,112.5C 119.812,111.145 118.812,110.145 117.5,109.5C 117.5,108.833 117.5,108.167 117.5,107.5C 118.167,106.833 118.833,106.167 119.5,105.5C 121.094,105.92 122.594,106.586 124,107.5C 127.486,104.112 126.653,102.112 121.5,101.5C 122.167,100.167 122.833,98.8333 123.5,97.5C 123.833,97.5 124.167,97.5 124.5,97.5C 126.886,97.7413 128.886,97.0746 130.5,95.5C 147.291,95.4643 164.291,95.4643 181.5,95.5 Z"/></g>
<g><path style="opacity:1" fill="#24211e" d="M 125.5,92.5 C 127.167,92.5 128.833,92.5 130.5,92.5C 130.5,93.5 130.5,94.5 130.5,95.5C 128.886,97.0746 126.886,97.7413 124.5,97.5C 124.216,95.5853 124.549,93.9187 125.5,92.5 Z"/></g>
<g><path style="opacity:1" fill="#1e1714" d="M 115.5,96.5 C 114.833,97.8333 114.167,99.1667 113.5,100.5C 109.763,104.869 105.43,108.535 100.5,111.5C 85.4665,115.607 73.7999,111.273 65.5,98.5C 81.7998,96.5146 98.4665,95.8479 115.5,96.5 Z"/></g>
<g><path style="opacity:1" fill="#64645c" d="M 101.5,104.5 C 102.306,102.836 101.973,101.169 100.5,99.5C 100.167,100.667 99.8333,101.833 99.5,103C 99.6083,104.681 100.275,105.848 101.5,106.5C 100.791,107.404 99.791,107.737 98.5,107.5C 98.5,104.5 98.5,101.5 98.5,98.5C 100.5,98.5 102.5,98.5 104.5,98.5C 104.614,101.216 103.614,103.216 101.5,104.5 Z"/></g>
<g><path style="opacity:1" fill="#615f5c" d="M 96.5,100.5 C 95.8365,102.042 95.1698,103.709 94.5,105.5C 92.63,97.7014 91.63,98.0347 91.5,106.5C 92.8333,106.5 94.1667,106.5 95.5,106.5C 94.0813,107.451 92.4147,107.784 90.5,107.5C 90.5,105.167 90.5,102.833 90.5,100.5C 89.5,100.5 88.5,100.5 87.5,100.5C 87.44,99.9569 87.1067,99.6236 86.5,99.5C 86.1667,100.667 85.8333,101.833 85.5,103C 85.6083,104.681 86.2749,105.848 87.5,106.5C 86.791,107.404 85.791,107.737 84.5,107.5C 84.9746,104.918 84.3079,102.918 82.5,101.5C 81.4341,100.308 80.6008,100.641 80,102.5C 78.7554,98.5023 77.922,98.6689 77.5,103C 77.6083,104.681 78.2749,105.848 79.5,106.5C 78.791,107.404 77.791,107.737 76.5,107.5C 76.5,104.5 76.5,101.5 76.5,98.5C 82.0948,98.8573 87.5948,98.8573 93,98.5C 94.6991,98.3866 95.8658,99.0532 96.5,100.5 Z"/></g>
<g><path style="opacity:1" fill="#c9c9cd" d="M 82.5,101.5 C 82.1788,103.048 81.1788,103.715 79.5,103.5C 79.5,104.5 79.5,105.5 79.5,106.5C 78.2749,105.848 77.6083,104.681 77.5,103C 77.922,98.6689 78.7554,98.5023 80,102.5C 80.6008,100.641 81.4341,100.308 82.5,101.5 Z"/></g>
<g><path style="opacity:1" fill="#cacbcd" d="M 101.5,104.5 C 101.5,105.167 101.5,105.833 101.5,106.5C 100.275,105.848 99.6083,104.681 99.5,103C 99.8333,101.833 100.167,100.667 100.5,99.5C 101.973,101.169 102.306,102.836 101.5,104.5 Z"/></g>
<g><path style="opacity:1" fill="#d0cfcb" d="M 87.5,100.5 C 87.5,102.5 87.5,104.5 87.5,106.5C 86.2749,105.848 85.6083,104.681 85.5,103C 85.8333,101.833 86.1667,100.667 86.5,99.5C 87.1067,99.6236 87.44,99.9569 87.5,100.5 Z"/></g>
<g><path style="opacity:1" fill="#271c18" d="M 57.5,101.5 C 59.4456,102.035 60.4456,103.368 60.5,105.5C 59.1932,106.153 57.8599,106.82 56.5,107.5C 53.4994,104.86 53.8327,102.86 57.5,101.5 Z"/></g>
<g><path style="opacity:1" fill="#26231d" d="M 121.5,101.5 C 126.653,102.112 127.486,104.112 124,107.5C 122.594,106.586 121.094,105.92 119.5,105.5C 119.733,103.938 120.4,102.605 121.5,101.5 Z"/></g>
<g><path style="opacity:1" fill="#babcb2" d="M 96.5,100.5 C 97.1386,101.097 97.472,101.93 97.5,103C 97.6134,104.699 96.9468,105.866 95.5,106.5C 94.1667,106.5 92.8333,106.5 91.5,106.5C 91.63,98.0347 92.63,97.7014 94.5,105.5C 95.1698,103.709 95.8365,102.042 96.5,100.5 Z"/></g>
<g><path style="opacity:1" fill="#ae8e37" d="M 113.5,100.5 C 114.81,102.83 116.143,105.164 117.5,107.5C 117.5,108.167 117.5,108.833 117.5,109.5C 116.391,109.557 115.391,109.89 114.5,110.5C 114.5,109.833 114.167,109.5 113.5,109.5C 113.762,108.022 113.429,106.689 112.5,105.5C 111.614,106.325 111.281,107.325 111.5,108.5C 110.325,108.281 109.325,108.614 108.5,109.5C 109.127,110.417 109.461,111.417 109.5,112.5C 108.687,113.653 107.687,113.653 106.5,112.5C 105.808,113.025 105.308,113.692 105,114.5C 104.092,112.561 102.592,111.561 100.5,111.5C 105.43,108.535 109.763,104.869 113.5,100.5 Z"/></g>
<g><path style="opacity:1" fill="#936c1b" d="M 65.5,103.5 C 66.2389,103.369 66.9056,103.536 67.5,104C 66.0439,104.423 65.5439,105.256 66,106.5C 68.4676,105.885 70.6343,106.718 72.5,109C 72.1667,109.333 71.8333,109.667 71.5,110C 73.556,110.311 75.556,110.811 77.5,111.5C 78.1841,113.496 78.1841,115.162 77.5,116.5C 75.965,115.646 74.6316,115.646 73.5,116.5C 72.609,115.89 71.609,115.557 70.5,115.5C 71.0906,114.849 71.7573,114.182 72.5,113.5C 69.1421,111.845 66.1421,109.178 63.5,105.5C 63.5,104.167 64.1667,103.5 65.5,103.5 Z"/></g>
<g><path style="opacity:1" fill="#795301" d="M 113.5,109.5 C 111.57,109.771 110.236,110.771 109.5,112.5C 109.461,111.417 109.127,110.417 108.5,109.5C 109.325,108.614 110.325,108.281 111.5,108.5C 111.281,107.325 111.614,106.325 112.5,105.5C 113.429,106.689 113.762,108.022 113.5,109.5 Z"/></g>
<g><path style="opacity:1" fill="#2a2125" d="M 63.5,109.5 C 64.8333,110.167 65.8333,111.167 66.5,112.5C 65.3617,115.267 63.5283,115.934 61,114.5C 59.9231,111.738 60.7564,110.072 63.5,109.5 Z"/></g>
<g><path style="opacity:1" fill="#c8b347" d="M 61.5,105.5 C 62.1667,105.5 62.8333,105.5 63.5,105.5C 66.1421,109.178 69.1421,111.845 72.5,113.5C 71.7573,114.182 71.0906,114.849 70.5,115.5C 70.1667,115.5 69.8333,115.5 69.5,115.5C 69.5,113.5 68.5,112.5 66.5,112.5C 65.8333,111.167 64.8333,110.167 63.5,109.5C 63.2671,107.938 62.6005,106.605 61.5,105.5 Z"/></g>
<g><path style="opacity:1" fill="#262019" d="M 117.5,109.5 C 118.812,110.145 119.812,111.145 120.5,112.5C 119.468,115.193 117.802,115.86 115.5,114.5C 114.833,113.5 114.167,112.5 113.5,111.5C 114.167,111.5 114.5,111.167 114.5,110.5C 115.391,109.89 116.391,109.557 117.5,109.5 Z"/></g>
<g><path style="opacity:1" fill="#c4a932" d="M 65.5,98.5 C 73.7999,111.273 85.4665,115.607 100.5,111.5C 102.592,111.561 104.092,112.561 105,114.5C 105.308,113.692 105.808,113.025 106.5,112.5C 107.687,113.653 108.687,113.653 109.5,112.5C 110.236,110.771 111.57,109.771 113.5,109.5C 114.167,109.5 114.5,109.833 114.5,110.5C 114.5,111.167 114.167,111.5 113.5,111.5C 111.799,112.211 110.799,113.545 110.5,115.5C 109.167,115.833 107.833,116.167 106.5,116.5C 104.77,117.026 103.436,118.026 102.5,119.5C 100.585,119.216 98.9187,119.549 97.5,120.5C 95.6656,119.506 93.9989,119.506 92.5,120.5C 90.8333,120.5 89.1667,120.5 87.5,120.5C 86.1667,120.5 84.8333,120.5 83.5,120.5C 82.0813,119.549 80.4147,119.216 78.5,119.5C 78.4431,118.391 78.1098,117.391 77.5,116.5C 78.1841,115.162 78.1841,113.496 77.5,111.5C 75.556,110.811 73.556,110.311 71.5,110C 71.8333,109.667 72.1667,109.333 72.5,109C 70.6343,106.718 68.4676,105.885 66,106.5C 65.5439,105.256 66.0439,104.423 67.5,104C 66.9056,103.536 66.2389,103.369 65.5,103.5C 65.5,101.833 65.5,100.167 65.5,98.5 Z"/></g>
<g><path style="opacity:1" fill="#8e661c" d="M 99.5,112.5 C 101.344,113.204 101.844,114.537 101,116.5C 99.9125,114.068 99.4125,114.402 99.5,117.5C 92.9336,118.576 86.267,118.576 79.5,117.5C 79.5,116.167 79.5,114.833 79.5,113.5C 85.4632,114.53 91.4632,114.697 97.5,114C 98.4158,113.722 99.0825,113.222 99.5,112.5 Z"/></g>
<g><path style="opacity:1" fill="#221824" d="M 110.5,115.5 C 113.538,118.315 113.038,120.315 109,121.5C 107.124,120.381 106.291,118.714 106.5,116.5C 107.833,116.167 109.167,115.833 110.5,115.5 Z"/></g>
<g><path style="opacity:1" fill="#262019" d="M 69.5,115.5 C 69.8333,115.5 70.1667,115.5 70.5,115.5C 71.609,115.557 72.609,115.89 73.5,116.5C 74.525,116.897 74.6917,117.563 74,118.5C 69.421,122.771 67.921,121.771 69.5,115.5 Z"/></g>
<g><path style="opacity:1" fill="#262222" d="M 78.5,119.5 C 80.4147,119.216 82.0813,119.549 83.5,120.5C 83.4077,122.848 82.4077,124.514 80.5,125.5C 77.3178,124.383 76.6511,122.383 78.5,119.5 Z"/></g>
<g><path style="opacity:1" fill="#dcd2a8" d="M 97.5,120.5 C 97.5,121.167 97.5,121.833 97.5,122.5C 95.8828,123.038 94.2161,123.371 92.5,123.5C 92.5,122.5 92.5,121.5 92.5,120.5C 93.9989,119.506 95.6656,119.506 97.5,120.5 Z"/></g>
<g><path style="opacity:1" fill="#1f191b" d="M 102.5,119.5 C 102.5,121.167 102.5,122.833 102.5,124.5C 101.178,124.33 100.011,124.663 99,125.5C 98.4867,124.473 97.9867,123.473 97.5,122.5C 97.5,121.833 97.5,121.167 97.5,120.5C 98.9187,119.549 100.585,119.216 102.5,119.5 Z"/></g>
<g><path style="opacity:1" fill="#e3e6dd" d="M 113.5,111.5 C 114.167,112.5 114.833,113.5 115.5,114.5C 114.828,117.343 113.495,119.843 111.5,122C 113.519,122.45 115.352,123.283 117,124.5C 117.333,124.167 117.667,123.833 118,123.5C 119.167,124.667 120.333,125.833 121.5,127C 118.118,127.824 114.784,127.657 111.5,126.5C 109.841,123.567 107.507,122.9 104.5,124.5C 105.833,125.167 107.167,125.833 108.5,126.5C 107.667,126.833 106.833,127.167 106,127.5C 102.493,126.236 98.9927,126.236 95.5,127.5C 95.5,141.833 95.5,156.167 95.5,170.5C 124.167,170.5 152.833,170.5 181.5,170.5C 181.5,170.833 181.5,171.167 181.5,171.5C 120.833,171.5 60.1667,171.5 -0.5,171.5C -0.5,171.167 -0.5,170.833 -0.5,170.5C 28.1667,170.5 56.8333,170.5 85.5,170.5C 84.3815,155.937 84.3815,141.437 85.5,127C 83.6183,126.802 81.9516,126.302 80.5,125.5C 82.4077,124.514 83.4077,122.848 83.5,120.5C 84.8333,120.5 86.1667,120.5 87.5,120.5C 87.5,122.5 87.5,124.5 87.5,126.5C 89.1667,126.5 90.8333,126.5 92.5,126.5C 92.5,125.5 92.5,124.5 92.5,123.5C 94.2161,123.371 95.8828,123.038 97.5,122.5C 97.9867,123.473 98.4867,124.473 99,125.5C 100.011,124.663 101.178,124.33 102.5,124.5C 102.5,122.833 102.5,121.167 102.5,119.5C 103.436,118.026 104.77,117.026 106.5,116.5C 106.291,118.714 107.124,120.381 109,121.5C 113.038,120.315 113.538,118.315 110.5,115.5C 110.799,113.545 111.799,112.211 113.5,111.5 Z"/></g>
<g><path style="opacity:1" fill="#272122" d="M 87.5,120.5 C 89.1667,120.5 90.8333,120.5 92.5,120.5C 92.5,121.5 92.5,122.5 92.5,123.5C 92.5,124.5 92.5,125.5 92.5,126.5C 90.8333,126.5 89.1667,126.5 87.5,126.5C 87.5,124.5 87.5,122.5 87.5,120.5 Z"/></g>
</svg>
